# xmcd
#
# Track frame offsets: 
#        150
#        13798
#        35892
#        49644
#        65980
#        88307
#        104457
#        123301
#        136314
#        152076
#        167701
#        183353
#        196464
#        218666
#
# Disc length: 3148 seconds
#
# Revision: 0
# Processed by: cddbd v1.5.1PL2 Copyright (c) Steve Scherf et al.
# Submitted via: ExactAudioCopy v0.95b2
#
DISCID=ce0c4a0e
DTITLE=Lee Ann Womack - I Hope You Dance
DYEAR=2001
DGENRE=Country
TTITLE0=The Healing Kind
TTITLE1=I Hope You Dance
TTITLE2=After I Fall
TTITLE3=Stronger Than I Am
TTITLE4=I Know Why The River Runs
TTITLE5=Why They Call It Falling
TTITLE6=Ashes By Now
TTITLE7=Thinkin' With My Heart Again
TTITLE8=I Feel Like I'm Forgetting Something
TTITLE9=Lonely Too
TTITLE10=Does My Ring Burn Your Finger
TTITLE11=Lord I Hope This Day Is Good
TTITLE12=I Hope You Dance (Album Version)
TTITLE13=I Hope You Dance (Single Version)
EXTD=
EXTT0=
EXTT1=
EXTT2=
EXTT3=
EXTT4=
EXTT5=
EXTT6=
EXTT7=
EXTT8=
EXTT9=
EXTT10=
EXTT11=
EXTT12=
EXTT13=
PLAYORDER=
